<?xml version="1.0" standalone="no"?>
<!DOCTYPE svg PUBLIC "-//W3C//DTD SVG 20010904//EN"
 "http://www.w3.org/TR/2001/REC-SVG-20010904/DTD/svg10.dtd">
<svg version="1.0" xmlns="http://www.w3.org/2000/svg"
 width="500.000000pt" height="500.000000pt" viewBox="0 0 500.000000 500.000000"
 preserveAspectRatio="xMidYMid meet">

<g transform="translate(0.000000,500.000000) scale(0.100000,-0.100000)"
fill="#000000" stroke="none">
<path d="M0 2500 l0 -2500 2500 0 2500 0 0 2500 0 2500 -2500 0 -2500 0 0
-2500z m2211 525 c151 -577 277 -1056 280 -1063 2 -7 130 466 284 1052 l279
1066 478 0 c445 0 477 -1 482 -17 9 -31 646 -3118 646 -3130 0 -10 -72 -13
-325 -13 l-325 0 -5 22 c-4 17 -428 2069 -482 2332 -4 21 -96 -284 -349 -1160
-189 -654 -344 -1190 -344 -1191 0 -2 -150 -3 -333 -3 l-333 0 -338 1173
c-187 644 -341 1181 -344 1192 -3 10 -116 -516 -251 -1170 l-246 -1190 -327
-3 c-181 -1 -328 0 -328 2 0 5 617 2997 641 3109 l11 47 476 -2 477 -3 276
-1050z"/>
</g>
</svg>
